HIERARCHY
ROOT Hips
{
	OFFSET 0.00000 0.00000 0.00000
	CHANNELS 6 Xposition Yposition Zposition Zrotation Yrotation Xrotation 
	JOINT LHipJoint
	{
		OFFSET 0 0 0
		CHANNELS 3 Zrotation Yrotation Xrotation
		JOINT LeftUpLeg
		{
			OFFSET 1.37590 -1.78394 0.89329
			CHANNELS 3 Zrotation Yrotation Xrotation
			JOINT LeftLeg
			{
				OFFSET 2.47928 -6.81178 0.00000
				CHANNELS 3 Zrotation Yrotation Xrotation
				JOINT LeftFoot
				{
					OFFSET 2.63345 -7.23535 0.00000
					CHANNELS 3 Zrotation Yrotation Xrotation
					JOINT LeftToeBase
					{
						OFFSET 0.23938 -0.65768 2.27012
						CHANNELS 3 Zrotation Yrotation Xrotation
						End Site
						{
							OFFSET 0.00000 -0.00000 1.18363
						}
					}
				}
			}
		}
	}
	JOINT RHipJoint
	{
		OFFSET 0 0 0
		CHANNELS 3 Zrotation Yrotation Xrotation
		JOINT RightUpLeg
		{
			OFFSET -1.33617 -1.78394 0.89329
			CHANNELS 3 Zrotation Yrotation Xrotation
			JOINT RightLeg
			{
				OFFSET -2.56922 -7.05888 0.00000
				CHANNELS 3 Zrotation Yrotation Xrotation
				JOINT RightFoot
				{
					OFFSET -2.56568 -7.04915 0.00000
					CHANNELS 3 Zrotation Yrotation Xrotation
					JOINT RightToeBase
					{
						OFFSET -0.27533 -0.75646 2.18105
						CHANNELS 3 Zrotation Yrotation Xrotation
						End Site
						{
							OFFSET -0.00000 -0.00000 1.15233
						}
					}
				}
			}
		}
	}
	JOINT LowerBack
	{
		OFFSET 0 0 0
		CHANNELS 3 Zrotation Yrotation Xrotation
		JOINT Spine
		{
			OFFSET 0.06190 2.15152 -0.00935
			CHANNELS 3 Zrotation Yrotation Xrotation
			JOINT Spine1
			{
				OFFSET 0.06334 2.15332 0.00872
				CHANNELS 3 Zrotation Yrotation Xrotation
				JOINT Neck
				{
					OFFSET 0 0 0
					CHANNELS 3 Zrotation Yrotation Xrotation
					JOINT Neck1
					{
						OFFSET -0.04202 1.66908 0.23524
						CHANNELS 3 Zrotation Yrotation Xrotation
						JOINT Head
						{
							OFFSET 0.07510 1.69357 -0.24440
							CHANNELS 3 Zrotation Yrotation Xrotation
							End Site
							{
								OFFSET 0.02556 1.71719 -0.11000
							}
						}
					}
				}
				JOINT LeftShoulder
				{
					OFFSET 0 0 0
					CHANNELS 3 Zrotation Yrotation Xrotation
					JOINT LeftArm
					{
						OFFSET 3.67168 1.26306 -0.41342
						CHANNELS 3 Zrotation Yrotation Xrotation
						JOINT LeftForeArm
						{
							OFFSET 4.68510 -0.00000 -0.00000
							CHANNELS 3 Zrotation Yrotation Xrotation
							JOINT LeftHand
							{
								OFFSET 3.39626 -0.00000 -0.00000
								CHANNELS 3 Zrotation Yrotation Xrotation
								JOINT LeftFingerBase
								{
									OFFSET 0 0 0
									CHANNELS 3 Zrotation Yrotation Xrotation
									JOINT LeftHandIndex1
									{
										OFFSET 0.48608 -0.00000 -0.00000
										CHANNELS 3 Zrotation Yrotation Xrotation
										End Site
										{
											OFFSET 0.39189 -0.00000 -0.00000
										}
									}
								}
								JOINT LThumb
								{
									OFFSET 0 0 0
									CHANNELS 3 Zrotation Yrotation Xrotation
									End Site
									{
										OFFSET 0.39787 -0.00000 0.39787
									}
								}
							}
						}
					}
				}
				JOINT RightShoulder
				{
					OFFSET 0 0 0
					CHANNELS 3 Zrotation Yrotation Xrotation
					JOINT RightArm
					{
						OFFSET -3.04136 1.42992 -0.76390
						CHANNELS 3 Zrotation Yrotation Xrotation
						JOINT RightForeArm
						{
							OFFSET -5.55576 -0.00000 -0.00000
							CHANNELS 3 Zrotation Yrotation Xrotation
							JOINT RightHand
							{
								OFFSET -3.32774 -0.00000 -0.00000
								CHANNELS 3 Zrotation Yrotation Xrotation
								JOINT RightFingerBase
								{
									OFFSET 0 0 0
									CHANNELS 3 Zrotation Yrotation Xrotation
									JOINT RightHandIndex1
									{
										OFFSET -0.50763 -0.00000 -0.00000
										CHANNELS 3 Zrotation Yrotation Xrotation
										End Site
										{
											OFFSET -0.40926 -0.00000 -0.00000
										}
									}
								}
								JOINT RThumb
								{
									OFFSET 0 0 0
									CHANNELS 3 Zrotation Yrotation Xrotation
									End Site
									{
										OFFSET -0.41551 -0.00000 0.41551
									}
								}
							}
						}
					}
				}
			}
		}
	}
}
MOTION
Frames: 9
Frame Time: .0083333
0.1883 17.6998 6.1048 -142.4860 -86.5848 151.2900 0.0000 0.0000 0.0000 -18.2765 -2.5000 -0.1757 1.1795 6.8928 19.3983 0.5615 -6.0028 -13.3841 0.2546 -3.2464 -8.9655 0.0000 0.0000 0.0000 16.7020 10.2293 -33.9270 -1.0316 -6.4605 18.1266 0.4323 -11.9907 -7.8428 -0.0187 -0.8834 2.4281 -0.9612 -1.5594 1.8013 3.9358 -2.0668 -2.1194 4.6995 -0.9899 -3.0150 -3.9198 -1.8713 -20.3492 2.2603 -1.9940 19.6728 1.1485 -0.9907 9.6521 -0.0000 0.0000 0.0000 -74.1045 -20.0538 29.7915 30.4046 -41.2377 -11.6754 -0.0000 -0.0000 13.0323 18.7424 22.1651 7.2949 -7.1250 0.0000 -0.0000 -10.5028 52.9533 -2.0734 -0.0000 0.0000 0.0000 85.1995 0.2824 11.6578 -20.5928 31.3499 -5.8366 0.0000 0.0000 17.3220 -17.3985 -21.1583 6.4529 7.1250 -0.0000 -0.0000 11.4439 -51.7006 -1.9092
0.0356 17.7018 6.0755 -140.2430 -86.4883 149.0500 0.0000 0.0000 0.0000 -17.9576 -2.5054 -0.3982 1.3085 7.2460 20.4463 0.5209 -6.0658 -12.9112 0.3072 -3.5636 -9.8520 0.0000 0.0000 0.0000 17.0537 10.3290 -33.7035 -1.0508 -6.5183 18.2960 0.4117 -11.6873 -7.5650 -0.0253 -1.0269 2.8227 -0.7464 -1.5254 1.8414 4.0139 -2.0152 -2.0960 4.6585 -0.9694 -3.0223 -3.9134 -1.8736 -20.3719 2.2180 -1.9869 19.6536 1.1335 -0.9913 9.6487 -0.0000 0.0000 0.0000 -74.4600 -19.6326 30.4527 30.7822 -41.5545 -11.9251 -0.0000 -0.0000 13.1061 18.7545 22.0610 7.2677 -7.1250 0.0000 -0.0000 -10.4498 52.8499 -2.0362 -0.0000 0.0000 0.0000 85.2184 0.3095 12.2339 -20.7820 31.5730 -5.9354 0.0000 0.0000 17.3581 -17.3233 -21.0706 6.3983 7.1250 -0.0000 -0.0000 11.4841 -51.5993 -1.8873
-0.1183 17.7050 6.0459 -137.9980 -86.3751 146.7980 0.0000 0.0000 0.0000 -17.6176 -2.5170 -0.6673 1.4527 7.6186 21.5614 0.4765 -6.1074 -12.3777 0.3645 -3.8782 -10.7343 0.0000 0.0000 0.0000 17.4366 10.4103 -33.4554 -1.0751 -6.5910 18.5091 0.3901 -11.3667 -7.2934 -0.0337 -1.1858 3.2601 -0.5155 -1.4870 1.8838 4.0932 -1.9572 -2.0679 4.6090 -0.9463 -3.0270 -3.9077 -1.8745 -20.3917 2.1770 -1.9783 19.6372 1.1193 -0.9913 9.6457 -0.0000 0.0000 0.0000 -74.8452 -19.1804 31.1045 31.0988 -41.8168 -12.1357 -0.0000 -0.0000 13.2099 18.7709 21.9585 7.2427 -7.1250 0.0000 -0.0000 -10.3936 52.7489 -1.9992 -0.0000 0.0000 0.0000 85.2253 0.3290 12.7754 -20.9676 31.7905 -6.0328 0.0000 0.0000 17.3684 -17.2593 -21.0055 6.3547 7.1250 -0.0000 -0.0000 11.5220 -51.5226 -1.8718
-0.2734 17.7096 6.0159 -135.8070 -86.2456 144.5880 0.0000 0.0000 0.0000 -17.2587 -2.5337 -0.9838 1.6132 8.0090 22.7415 0.4293 -6.1262 -11.7850 0.4257 -4.1873 -11.6042 0.0000 0.0000 0.0000 17.8475 10.4732 -33.1797 -1.1036 -6.6750 18.7562 0.3679 -11.0315 -7.0297 -0.0444 -1.3596 3.7389 -0.2705 -1.4441 1.9277 4.1726 -1.8928 -2.0350 4.5514 -0.9204 -3.0282 -3.9019 -1.8740 -20.4076 2.1368 -1.9683 19.6233 1.1057 -0.9905 9.6429 0.0000 -0.0000 0.0000 -75.2580 -18.6992 31.7450 31.3486 -42.0216 -12.3025 -0.0000 -0.0000 13.3472 18.7880 21.8573 7.2183 -7.1250 0.0000 -0.0000 -10.3374 52.6493 -1.9629 0.0000 -0.0000 0.0000 85.2214 0.3414 13.2826 -21.1498 32.0028 -6.1291 0.0000 0.0000 17.3511 -17.1978 -20.9598 6.3178 7.1250 -0.0000 -0.0000 11.5648 -51.4666 -1.8629
-0.4296 17.7154 5.9855 -133.7080 -86.0993 142.4610 0.0000 0.0000 0.0000 -16.8818 -2.5548 -1.3497 1.7906 8.4155 23.9833 0.3799 -6.1197 -11.1352 0.4894 -4.4858 -12.4475 0.0000 0.0000 0.0000 18.2843 10.5180 -32.8762 -1.1356 -6.7679 19.0296 0.3452 -10.6843 -6.7751 -0.0576 -1.5493 4.2617 -0.0125 -1.3960 1.9720 4.2518 -1.8212 -1.9983 4.4857 -0.8913 -3.0263 -3.8940 -1.8723 -20.4202 2.0959 -1.9574 19.6136 1.0915 -0.9893 9.6409 -0.0000 0.0000 0.0000 -75.6960 -18.1907 32.3729 31.5274 -42.1671 -12.4224 -0.0000 -0.0000 13.5197 18.8089 21.7576 7.1958 -7.1250 0.0000 -0.0000 -10.2785 52.5518 -1.9268 -0.0000 0.0000 0.0000 85.2079 0.3471 13.7546 -21.3290 32.2104 -6.2244 0.0000 0.0000 17.3111 -17.1385 -20.9365 6.2882 7.1250 -0.0000 -0.0000 11.6140 -51.4331 -1.8614
-0.5868 17.7225 5.9549 -131.7220 -85.9372 140.4390 0.0000 0.0000 0.0000 -16.4874 -2.5799 -1.7660 1.9855 8.8359 25.2833 0.3294 -6.0850 -10.4298 0.5544 -4.7697 -13.2530 0.0000 0.0000 0.0000 18.7441 10.5467 -32.5426 -1.1700 -6.8661 19.3193 0.3226 -10.3289 -6.5312 -0.0739 -1.7532 4.8240 0.2568 -1.3435 2.0160 4.3305 -1.7435 -1.9581 4.4129 -0.8594 -3.0210 -3.8858 -1.8689 -20.4286 2.0565 -1.9451 19.6079 1.0781 -0.9874 9.6396 0.0000 0.0000 0.0000 -76.1572 -17.6568 32.9839 31.6311 -42.2511 -12.4921 -0.0000 -0.0000 13.7290 18.8351 21.6584 7.1755 -7.1250 0.0000 -0.0000 -10.2146 52.4558 -1.8905 0.0000 0.0000 0.0000 85.1853 0.3478 14.1941 -21.5044 32.4123 -6.3181 0.0000 0.0000 17.2491 -17.0849 -20.9288 6.2653 7.1250 -0.0000 -0.0000 11.6635 -51.4164 -1.8646
-0.7449 17.7308 5.9240 -129.8720 -85.7600 138.5440 0.0000 0.0000 0.0000 -16.0770 -2.6083 -2.2334 2.1984 9.2677 26.6364 0.2791 -6.0202 -9.6801 0.6211 -5.0433 -14.0321 0.0000 0.0000 0.0000 19.2241 10.5597 -32.1777 -1.2059 -6.9668 19.6169 0.3002 -9.9685 -6.2985 -0.0926 -1.9627 5.4025 0.5360 -1.2863 2.0579 4.4085 -1.6594 -1.9145 4.3331 -0.8247 -3.0114 -3.8764 -1.8638 -20.4314 2.0174 -1.9312 19.6055 1.0649 -0.9848 9.6383 0.0000 0.0000 0.0000 -76.6405 -17.1020 33.5744 31.6536 -42.2693 -12.5072 -0.0000 -0.0000 13.9760 18.8663 21.5603 7.1575 -7.1250 0.0000 -0.0000 -10.1466 52.3617 -1.8542 0.0000 0.0000 0.0000 85.1542 0.3435 14.6018 -21.6770 32.6101 -6.4109 0.0000 0.0000 17.1664 -17.0380 -20.9391 6.2501 7.1250 -0.0000 -0.0000 11.7133 -51.4193 -1.8736
-0.9039 17.7403 5.8929 -128.1630 -85.5696 136.7830 0.0000 0.0000 0.0000 -15.6521 -2.6402 -2.7522 2.4294 9.7084 28.0376 0.2297 -5.9281 -8.8855 0.6860 -5.2955 -14.7533 0.0000 0.0000 0.0000 19.7211 10.5580 -31.7794 -1.2419 -7.0664 19.9122 0.2783 -9.6074 -6.0845 -0.1150 -2.1868 6.0223 0.8236 -1.2249 2.0976 4.4850 -1.5696 -1.8686 4.2467 -0.7874 -2.9983 -3.8671 -1.8569 -20.4282 1.9813 -1.9160 19.6068 1.0529 -0.9813 9.6373 -0.0000 -0.0000 0.0000 -77.1431 -16.5261 34.1411 31.5942 -42.2213 -12.4673 -0.0000 -0.0000 14.2590 18.9032 21.4643 7.1422 -7.1250 0.0000 -0.0000 -10.0740 52.2704 -1.8180 -0.0000 -0.0000 0.0000 85.1164 0.3357 14.9778 -21.8463 32.8029 -6.5024 0.0000 0.0000 17.0651 -16.9988 -20.9644 6.2421 7.1250 -0.0000 -0.0000 11.7612 -51.4380 -1.8869
-1.0636 17.7510 5.8615 -126.6130 -85.3658 135.1740 0.0000 0.0000 0.0000 -15.2139 -2.6741 -3.3203 2.6781 10.1548 29.4795 0.1826 -5.8072 -8.0584 0.7494 -5.5296 -15.4254 0.0000 0.0000 0.0000 20.2329 10.5440 -31.3446 -1.2770 -7.1617 20.1952 0.2572 -9.2482 -5.8885 -0.1407 -2.4174 6.6606 1.1193 -1.1590 2.1348 4.5594 -1.4739 -1.8205 4.1531 -0.7473 -2.9815 -3.8570 -1.8478 -20.4190 1.9475 -1.8991 19.6128 1.0419 -0.9768 9.6367 -0.0000 0.0000 0.0000 -77.6618 -15.9324 34.6798 31.4504 -42.1046 -12.3707 -0.0000 -0.0000 14.5757 18.9449 21.3697 7.1293 -7.1250 0.0000 -0.0000 -9.9975 52.1815 -1.7821 -0.0000 0.0000 0.0000 85.0728 0.3248 15.3247 -22.0126 32.9913 -6.5927 0.0000 0.0000 16.9469 -16.9652 -21.0028 6.2399 7.1250 -0.0000 -0.0000 11.8087 -51.4705 -1.9042
